<?xml version="1.0" standalone="no"?>
<!DOCTYPE svg PUBLIC "-//W3C//DTD SVG 20010904//EN"
 "http://www.w3.org/TR/2001/REC-SVG-20010904/DTD/svg10.dtd">
<svg version="1.0" xmlns="http://www.w3.org/2000/svg"
 width="100.000000pt" height="100.000000pt" viewBox="0 0 100.000000 100.000000"
 preserveAspectRatio="xMidYMid meet">

<g transform="translate(0.000000,100.000000) scale(0.100000,-0.100000)"
fill="#000000" stroke="none">
<path d="M184 850 c-12 -4 -31 -21 -43 -36 -20 -25 -21 -38 -21 -225 0 -290
-6 -282 255 -287 113 -2 194 0 217 7 46 14 78 54 78 97 0 18 4 35 8 38 5 3 37
-24 72 -59 73 -73 107 -84 135 -41 14 21 16 58 13 251 -3 211 -4 228 -22 241
-34 24 -53 16 -125 -51 -37 -36 -71 -65 -75 -65 -3 0 -6 16 -6 36 0 28 -8 44
-34 70 l-34 34 -198 -1 c-110 0 -209 -4 -220 -9z m420 -66 c23 -23 24 -369 0
-402 -15 -21 -20 -22 -203 -22 -146 0 -191 3 -207 14 -17 13 -19 30 -22 196
-3 153 -1 185 13 206 l15 24 195 0 c163 0 196 -3 209 -16z m236 -206 l0 -203
-85 86 c-76 77 -85 90 -85 124 0 33 9 46 77 116 42 44 80 79 85 79 4 0 8 -91
8 -202z"/>
<path d="M53 158 c6 -70 21 -88 72 -88 47 0 65 26 65 93 0 50 -2 57 -20 57
-16 0 -19 -8 -22 -57 -3 -50 -6 -58 -23 -58 -17 0 -20 8 -23 58 -3 54 -4 57
-29 57 -26 0 -26 -1 -20 -62z"/>
<path d="M220 145 c0 -73 1 -75 25 -75 21 0 25 5 25 30 0 24 4 30 23 30 29 0
43 10 51 36 10 34 -17 54 -75 54 l-49 0 0 -75z m80 30 c0 -8 -7 -15 -15 -15
-8 0 -15 7 -15 15 0 8 7 15 15 15 8 0 15 -7 15 -15z"/>
<path d="M360 145 l0 -75 60 0 c53 0 60 2 60 20 0 16 -7 20 -35 20 l-35 0 0
55 c0 52 -1 55 -25 55 -24 0 -25 -2 -25 -75z"/>
<path d="M510 200 c-44 -44 -13 -130 48 -130 48 0 72 25 72 75 0 34 -5 47 -22
59 -31 22 -74 20 -98 -4z m75 -55 c0 -31 -4 -41 -19 -43 -32 -7 -50 50 -24 76
24 24 43 9 43 -33z"/>
<path d="M666 150 c-14 -39 -26 -73 -26 -76 0 -9 39 -4 45 6 8 13 52 13 60 0
3 -5 15 -10 26 -10 22 0 23 -4 -11 95 -14 40 -22 51 -42 53 -23 3 -28 -3 -52
-68z m64 -12 c0 -5 -7 -8 -15 -8 -17 0 -18 2 -9 25 5 13 8 14 15 3 5 -7 9 -16
9 -20z"/>
<path d="M810 145 l0 -75 44 0 c62 0 96 39 82 95 -10 39 -34 55 -82 55 l-44 0
0 -75z m75 0 c0 -30 -4 -41 -17 -43 -15 -3 -18 4 -18 43 0 39 3 46 18 43 13
-2 17 -13 17 -43z"/>
</g>
</svg>