<?xml version="1.0" standalone="no"?>
<!DOCTYPE svg PUBLIC "-//W3C//DTD SVG 20010904//EN"
 "http://www.w3.org/TR/2001/REC-SVG-20010904/DTD/svg10.dtd">
<svg version="1.0" xmlns="http://www.w3.org/2000/svg"
 width="512.000000pt" height="115.000000pt" viewBox="0 0 512.000000 115.000000"
 preserveAspectRatio="xMidYMid meet">

<g transform="translate(0.000000,115.000000) scale(0.100000,-0.100000)"
fill="#000000" stroke="none">
<path d="M240 1101 c-91 -14 -149 -65 -175 -153 -22 -75 -22 -661 0 -736 19
-62 54 -105 109 -135 40 -22 49 -22 406 -22 355 0 366 1 405 22 78 41 115 105
115 196 0 30 3 57 7 61 4 3 66 -52 138 -124 125 -123 134 -130 172 -130 51 0
89 29 103 78 13 50 13 794 0 844 -14 49 -52 78 -103 78 -38 0 -47 -7 -172
-130 -72 -72 -134 -127 -138 -124 -4 4 -7 31 -7 61 0 91 -37 155 -115 196 -38
21 -54 22 -370 23 -181 1 -350 -1 -375 -5z m726 -135 l34 -34 0 -208 0 -208
-40 39 c-28 27 -40 47 -40 68 0 61 -53 122 -123 140 -35 9 -52 22 -78 57 -46
61 -123 100 -199 100 -120 0 -215 -83 -242 -211 -9 -43 -19 -64 -35 -75 -13
-8 -37 -34 -54 -57 l-30 -42 3 204 3 203 33 29 32 29 351 0 351 0 34 -34z
m454 -386 c0 -209 -4 -380 -8 -380 -4 0 -76 69 -160 153 l-152 153 0 74 0 74
152 153 c84 84 156 153 160 153 4 0 8 -171 8 -380z m-825 261 c42 -19 95 -72
95 -96 0 -25 31 -47 57 -40 34 8 89 -21 103 -55 7 -16 9 -42 5 -59 -6 -27 -2
-33 33 -56 21 -14 44 -37 51 -51 25 -56 6 -125 -46 -160 -26 -18 -49 -19 -298
-19 -252 0 -272 1 -303 20 -48 29 -76 79 -76 137 0 56 21 89 80 130 37 25 39
29 45 91 7 79 40 129 103 158 52 23 100 24 151 0z m-352 -555 l39 -31 299 -3
c330 -3 332 -3 391 61 l28 31 0 -58 c0 -53 -3 -61 -34 -92 l-34 -34 -351 0
-351 0 -32 29 c-31 28 -33 33 -36 113 l-4 83 24 -34 c12 -19 40 -48 61 -65z"/>
<path d="M1682 718 c-123 -42 -137 -253 -20 -314 40 -21 121 -24 165 -5 30 12
73 65 73 89 0 10 -51 32 -74 32 -6 0 -19 -14 -28 -30 -17 -30 -45 -38 -82 -24
-37 14 -43 128 -8 167 20 23 65 22 87 -3 15 -16 26 -19 54 -14 20 4 39 9 44
11 13 8 -27 64 -56 79 -37 20 -114 26 -155 12z"/>
<path d="M2347 715 c-79 -28 -113 -86 -105 -182 8 -93 67 -146 167 -147 94 -1
159 51 168 137 12 102 -30 175 -111 196 -56 14 -72 13 -119 -4z m99 -73 c20
-13 34 -50 34 -87 0 -61 -25 -95 -71 -95 -41 0 -64 34 -64 95 0 38 5 59 19 74
19 21 61 28 82 13z"/>
<path d="M4855 716 c-50 -19 -81 -54 -96 -108 -21 -81 11 -172 73 -204 47 -25
145 -24 188 2 98 57 100 240 3 297 -43 25 -119 31 -168 13z m115 -86 c15 -15
20 -33 20 -75 0 -62 -22 -95 -65 -95 -42 0 -65 33 -65 93 0 65 20 97 61 97 16
0 38 -9 49 -20z"/>
<path d="M1950 555 l0 -165 130 0 130 0 0 40 0 40 -80 0 -80 0 0 125 0 125
-50 0 -50 0 0 -165z"/>
<path d="M2640 600 c0 -137 10 -169 63 -197 43 -22 142 -23 184 0 53 28 63 60
63 197 l0 120 -50 0 -50 0 0 -114 c0 -91 -3 -118 -16 -130 -18 -18 -47 -20
-75 -6 -17 10 -19 22 -19 130 l0 120 -50 0 -50 0 0 -120z"/>
<path d="M3024 707 c-2 -7 -3 -80 -2 -162 l3 -150 105 0 c84 0 111 4 133 18
48 31 62 64 62 144 -1 83 -18 116 -76 145 -43 22 -217 26 -225 5z m192 -104
c16 -38 12 -96 -8 -120 -6 -7 -26 -13 -44 -13 l-34 0 0 85 0 85 36 0 c31 0 37
-4 50 -37z"/>
<path d="M3510 713 c0 -5 27 -78 59 -163 l59 -155 55 -3 55 -3 20 53 c11 29
38 102 61 162 23 60 41 111 41 113 0 2 -23 3 -52 1 l-52 -3 -33 -109 c-18 -60
-35 -111 -37 -113 -2 -2 -18 43 -35 99 -18 57 -34 109 -36 116 -5 13 -105 18
-105 5z"/>
<path d="M3900 555 l0 -165 50 0 50 0 0 165 0 165 -50 0 -50 0 0 -165z"/>
<path d="M4074 707 c-2 -7 -3 -80 -2 -162 l3 -150 105 0 c84 0 111 4 133 18
48 31 62 64 62 143 0 83 -18 117 -76 146 -43 22 -217 26 -225 5z m187 -83 c7
-9 13 -40 13 -69 0 -64 -15 -85 -60 -85 l-34 0 0 85 0 85 34 0 c19 0 39 -7 47
-16z"/>
<path d="M4430 555 l0 -165 140 0 140 0 0 40 0 40 -91 0 -90 0 3 28 c3 27 4
27 81 30 l77 3 0 34 0 35 -80 0 c-73 0 -80 2 -80 20 0 18 7 20 85 20 l85 0 0
40 0 40 -135 0 -135 0 0 -165z"/>
</g>
</svg>